<mxfile host="Electron" modified="2024-04-11T13:16:02.309Z" agent="Mozilla/5.0 (Windows NT 10.0; Win64; x64) AppleWebKit/537.36 (KHTML, like Gecko) draw.io/23.1.5 Chrome/120.0.6099.109 Electron/28.1.0 Safari/537.36" etag="PmdlBPC5S11A4R-ZagB2" version="23.1.5" type="device">
  <diagram name="Page-1" id="pIJavBY0yzTweW4xneVl">
    <mxGraphModel dx="-12" dy="545" grid="1" gridSize="10" guides="1" tooltips="1" connect="1" arrows="1" fold="1" page="1" pageScale="1" pageWidth="850" pageHeight="1100" math="0" shadow="0">
      <root>
        <mxCell id="0" />
        <mxCell id="1" parent="0" />
        <mxCell id="Xsye7NfsvQ5RSwN3Sd9K-2" style="edgeStyle=orthogonalEdgeStyle;rounded=0;orthogonalLoop=1;jettySize=auto;html=1;exitX=0.5;exitY=1;exitDx=0;exitDy=0;exitPerimeter=0;entryX=0.5;entryY=0;entryDx=0;entryDy=0;" edge="1" parent="1" source="dBdyuKx9wnMH7rO0jvBw-1" target="Xsye7NfsvQ5RSwN3Sd9K-1">
          <mxGeometry relative="1" as="geometry" />
        </mxCell>
        <mxCell id="dBdyuKx9wnMH7rO0jvBw-1" value="splitBill(pemesan, pesanan, jumlah_orang, total_baris, banyak_pesanan)" style="strokeWidth=2;html=1;shape=mxgraph.flowchart.start_1;whiteSpace=wrap;" parent="1" vertex="1">
          <mxGeometry x="1180.5" y="10" width="190" height="70" as="geometry" />
        </mxCell>
        <mxCell id="Xsye7NfsvQ5RSwN3Sd9K-4" style="edgeStyle=orthogonalEdgeStyle;rounded=0;orthogonalLoop=1;jettySize=auto;html=1;exitX=0.5;exitY=1;exitDx=0;exitDy=0;entryX=0.5;entryY=0;entryDx=0;entryDy=0;" edge="1" parent="1" source="Xsye7NfsvQ5RSwN3Sd9K-1" target="Xsye7NfsvQ5RSwN3Sd9K-3">
          <mxGeometry relative="1" as="geometry" />
        </mxCell>
        <mxCell id="Xsye7NfsvQ5RSwN3Sd9K-1" value="Deklarasi variabel iterasi: i = 0, j = 0" style="rounded=0;whiteSpace=wrap;html=1;" vertex="1" parent="1">
          <mxGeometry x="1165" y="110" width="220" height="50" as="geometry" />
        </mxCell>
        <mxCell id="Xsye7NfsvQ5RSwN3Sd9K-6" style="edgeStyle=orthogonalEdgeStyle;rounded=0;orthogonalLoop=1;jettySize=auto;html=1;exitX=0.5;exitY=1;exitDx=0;exitDy=0;entryX=0.5;entryY=0;entryDx=0;entryDy=0;" edge="1" parent="1" source="Xsye7NfsvQ5RSwN3Sd9K-3" target="Xsye7NfsvQ5RSwN3Sd9K-5">
          <mxGeometry relative="1" as="geometry" />
        </mxCell>
        <mxCell id="Xsye7NfsvQ5RSwN3Sd9K-9" value="Ya" style="edgeLabel;html=1;align=center;verticalAlign=middle;resizable=0;points=[];" vertex="1" connectable="0" parent="Xsye7NfsvQ5RSwN3Sd9K-6">
          <mxGeometry x="-0.1587" relative="1" as="geometry">
            <mxPoint y="-3" as="offset" />
          </mxGeometry>
        </mxCell>
        <mxCell id="Xsye7NfsvQ5RSwN3Sd9K-22" style="edgeStyle=orthogonalEdgeStyle;rounded=0;orthogonalLoop=1;jettySize=auto;html=1;exitX=0;exitY=0.5;exitDx=0;exitDy=0;entryX=0.5;entryY=0;entryDx=0;entryDy=0;entryPerimeter=0;" edge="1" parent="1" source="Xsye7NfsvQ5RSwN3Sd9K-3" target="Xsye7NfsvQ5RSwN3Sd9K-21">
          <mxGeometry relative="1" as="geometry">
            <mxPoint x="1120" y="711.9047619047619" as="targetPoint" />
            <Array as="points">
              <mxPoint x="1120" y="250" />
              <mxPoint x="1120" y="700" />
              <mxPoint x="1276" y="700" />
            </Array>
          </mxGeometry>
        </mxCell>
        <mxCell id="Xsye7NfsvQ5RSwN3Sd9K-23" value="Tidak" style="edgeLabel;html=1;align=center;verticalAlign=middle;resizable=0;points=[];" vertex="1" connectable="0" parent="Xsye7NfsvQ5RSwN3Sd9K-22">
          <mxGeometry x="-0.1013" relative="1" as="geometry">
            <mxPoint as="offset" />
          </mxGeometry>
        </mxCell>
        <mxCell id="Xsye7NfsvQ5RSwN3Sd9K-3" value="Apakah i &amp;lt; jumlah_orang" style="rhombus;whiteSpace=wrap;html=1;" vertex="1" parent="1">
          <mxGeometry x="1215" y="190" width="120" height="120" as="geometry" />
        </mxCell>
        <mxCell id="Xsye7NfsvQ5RSwN3Sd9K-8" style="edgeStyle=orthogonalEdgeStyle;rounded=0;orthogonalLoop=1;jettySize=auto;html=1;exitX=0.5;exitY=1;exitDx=0;exitDy=0;entryX=0.5;entryY=0;entryDx=0;entryDy=0;" edge="1" parent="1" source="Xsye7NfsvQ5RSwN3Sd9K-5" target="Xsye7NfsvQ5RSwN3Sd9K-7">
          <mxGeometry relative="1" as="geometry" />
        </mxCell>
        <mxCell id="Xsye7NfsvQ5RSwN3Sd9K-5" value="Deklarasi variabel yang diulang pada setiap iterasi: &lt;i&gt;sum&lt;/i&gt; = 0" style="rounded=0;whiteSpace=wrap;html=1;" vertex="1" parent="1">
          <mxGeometry x="1165" y="340" width="220" height="50" as="geometry" />
        </mxCell>
        <mxCell id="Xsye7NfsvQ5RSwN3Sd9K-12" style="edgeStyle=orthogonalEdgeStyle;rounded=0;orthogonalLoop=1;jettySize=auto;html=1;exitX=0.5;exitY=1;exitDx=0;exitDy=0;entryX=0.5;entryY=0;entryDx=0;entryDy=0;" edge="1" parent="1" source="Xsye7NfsvQ5RSwN3Sd9K-7" target="Xsye7NfsvQ5RSwN3Sd9K-11">
          <mxGeometry relative="1" as="geometry" />
        </mxCell>
        <mxCell id="Xsye7NfsvQ5RSwN3Sd9K-13" value="Ya" style="edgeLabel;html=1;align=center;verticalAlign=middle;resizable=0;points=[];" vertex="1" connectable="0" parent="Xsye7NfsvQ5RSwN3Sd9K-12">
          <mxGeometry x="-0.1898" y="1" relative="1" as="geometry">
            <mxPoint as="offset" />
          </mxGeometry>
        </mxCell>
        <mxCell id="Xsye7NfsvQ5RSwN3Sd9K-17" style="edgeStyle=orthogonalEdgeStyle;rounded=0;orthogonalLoop=1;jettySize=auto;html=1;exitX=1;exitY=0.5;exitDx=0;exitDy=0;entryX=0.5;entryY=1;entryDx=0;entryDy=0;" edge="1" parent="1" source="Xsye7NfsvQ5RSwN3Sd9K-7" target="Xsye7NfsvQ5RSwN3Sd9K-18">
          <mxGeometry relative="1" as="geometry">
            <mxPoint x="1450" y="479.7619047619048" as="targetPoint" />
          </mxGeometry>
        </mxCell>
        <mxCell id="Xsye7NfsvQ5RSwN3Sd9K-19" value="Tidak" style="edgeLabel;html=1;align=center;verticalAlign=middle;resizable=0;points=[];" vertex="1" connectable="0" parent="Xsye7NfsvQ5RSwN3Sd9K-17">
          <mxGeometry x="-0.2119" y="1" relative="1" as="geometry">
            <mxPoint as="offset" />
          </mxGeometry>
        </mxCell>
        <mxCell id="Xsye7NfsvQ5RSwN3Sd9K-7" value="Apakah j &amp;lt; total_baris-2?" style="rhombus;whiteSpace=wrap;html=1;" vertex="1" parent="1">
          <mxGeometry x="1215" y="420" width="120" height="120" as="geometry" />
        </mxCell>
        <mxCell id="Xsye7NfsvQ5RSwN3Sd9K-15" style="edgeStyle=orthogonalEdgeStyle;rounded=0;orthogonalLoop=1;jettySize=auto;html=1;exitX=0.5;exitY=1;exitDx=0;exitDy=0;entryX=0.5;entryY=0;entryDx=0;entryDy=0;" edge="1" parent="1" source="Xsye7NfsvQ5RSwN3Sd9K-11" target="Xsye7NfsvQ5RSwN3Sd9K-14">
          <mxGeometry relative="1" as="geometry" />
        </mxCell>
        <mxCell id="Xsye7NfsvQ5RSwN3Sd9K-11" value="Hitung total tagihan tiap pemesan dan tampilkan kepada user" style="rounded=0;whiteSpace=wrap;html=1;" vertex="1" parent="1">
          <mxGeometry x="1165.5" y="570" width="220" height="50" as="geometry" />
        </mxCell>
        <mxCell id="Xsye7NfsvQ5RSwN3Sd9K-16" style="edgeStyle=orthogonalEdgeStyle;rounded=0;orthogonalLoop=1;jettySize=auto;html=1;exitX=0;exitY=0.5;exitDx=0;exitDy=0;" edge="1" parent="1" source="Xsye7NfsvQ5RSwN3Sd9K-14">
          <mxGeometry relative="1" as="geometry">
            <mxPoint x="1270" y="400" as="targetPoint" />
            <Array as="points">
              <mxPoint x="1150" y="665" />
              <mxPoint x="1150" y="400" />
            </Array>
          </mxGeometry>
        </mxCell>
        <mxCell id="Xsye7NfsvQ5RSwN3Sd9K-14" value="j++" style="rounded=0;whiteSpace=wrap;html=1;" vertex="1" parent="1">
          <mxGeometry x="1238" y="650" width="75" height="30" as="geometry" />
        </mxCell>
        <mxCell id="Xsye7NfsvQ5RSwN3Sd9K-20" style="edgeStyle=orthogonalEdgeStyle;rounded=0;orthogonalLoop=1;jettySize=auto;html=1;exitX=0.5;exitY=0;exitDx=0;exitDy=0;" edge="1" parent="1" source="Xsye7NfsvQ5RSwN3Sd9K-18">
          <mxGeometry relative="1" as="geometry">
            <mxPoint x="1280" y="170" as="targetPoint" />
            <Array as="points">
              <mxPoint x="1438" y="170" />
              <mxPoint x="1335" y="170" />
            </Array>
          </mxGeometry>
        </mxCell>
        <mxCell id="Xsye7NfsvQ5RSwN3Sd9K-18" value="i++" style="rounded=0;whiteSpace=wrap;html=1;" vertex="1" parent="1">
          <mxGeometry x="1400" y="420" width="75" height="30" as="geometry" />
        </mxCell>
        <mxCell id="Xsye7NfsvQ5RSwN3Sd9K-21" value="return" style="strokeWidth=2;html=1;shape=mxgraph.flowchart.start_1;whiteSpace=wrap;" vertex="1" parent="1">
          <mxGeometry x="1210" y="720" width="130.5" height="60" as="geometry" />
        </mxCell>
      </root>
    </mxGraphModel>
  </diagram>
</mxfile>
